<svg width="54" height="70" viewBox="0 0 54 70" fill="none" xmlns="http://www.w3.org/2000/svg">
<g clip-path="url(#clip0_1_9910)">
<path d="M4.52845 53.2293C-0.842816 50.1842 -0.842804 42.5213 4.52845 39.4761L32.2366 23.7668C37.5787 20.738 44.2346 24.553 44.2346 30.6436V62.0618C44.2346 68.1527 37.5787 71.9673 32.2366 68.9389L4.52845 53.2293Z" fill="#388CD6"/>
<path d="M49.4933 17.7087C54.8356 20.7594 54.8356 28.3866 49.4933 31.4374L21.6973 47.3112C16.3552 50.3624 9.6775 46.5489 9.6775 40.4471V8.69906C9.6775 2.59736 16.3552 -1.21627 21.6973 1.83464L49.4933 17.7087Z" fill="#9B72FF"/>
<path fill-rule="evenodd" clip-rule="evenodd" d="M9.67751 36.5568L32.2366 23.7668C37.5787 20.738 44.2346 24.553 44.2346 30.6436V33.6797L21.6974 46.5504C16.3552 49.6015 9.67751 45.788 9.67751 39.6862V36.5568Z" fill="#000047"/>
</g>
<defs>
<clipPath id="clip0_1_9910">
<rect width="53" height="70" fill="white" transform="translate(0.5)"/>
</clipPath>
</defs>
</svg>
