<svg width="19" height="23" viewBox="0 0 19 23" fill="none" xmlns="http://www.w3.org/2000/svg">
<g clip-path="url(#clip0_3_2872)">
<path d="M2.29214 17.4896C0.569284 16.4891 0.569288 13.9713 2.29214 12.9707L11.1796 7.80909C12.8932 6.81393 15.0281 8.06741 15.0281 10.0686V20.3917C15.0281 22.393 12.8932 23.6464 11.1796 22.6514L2.29214 17.4896Z" fill="#388CD6"/>
<path d="M16.7711 5.56856C18.4847 6.57096 18.4847 9.07704 16.7711 10.0794L7.85541 15.2951C6.14192 16.2976 4 15.0446 4 13.0398V2.60826C4 0.60342 6.14192 -0.649628 7.85541 0.352812L16.7711 5.56856Z" fill="#9B72FF"/>
<path fill-rule="evenodd" clip-rule="evenodd" d="M3.94373 12.0115L11.1796 7.80909C12.8932 6.81393 15.0281 8.06741 15.0281 10.0686V11.0662L7.79917 15.2951C6.08564 16.2976 3.94373 15.0446 3.94373 13.0398V12.0115Z" fill="#000047"/>
</g>
<defs>
<clipPath id="clip0_3_2872">
<rect width="19" height="23" fill="white"/>
</clipPath>
</defs>
</svg>
