<svg width="88" height="19" viewBox="0 0 88 19" fill="none" xmlns="http://www.w3.org/2000/svg">
<path d="M3.96463 4.44671C4.31675 3.9563 4.79926 3.54976 5.41219 3.22712C6.03816 2.89157 6.7489 2.7238 7.54441 2.7238C8.47033 2.7238 9.30496 2.94965 10.0483 3.40135C10.8047 3.85305 11.3981 4.49834 11.8284 5.3372C12.2718 6.16317 12.4935 7.12464 12.4935 8.22162C12.4935 9.3186 12.2718 10.293 11.8284 11.1448C11.3981 11.9836 10.8047 12.6354 10.0483 13.1C9.30496 13.5646 8.47033 13.7969 7.54441 13.7969C6.7489 13.7969 6.04468 13.6355 5.43175 13.3129C4.83186 12.9903 4.34283 12.5837 3.96463 12.0933V18.7333H1.226V2.89803H3.96463V4.44671ZM9.69619 8.22162C9.69619 7.57634 9.55926 7.02139 9.2854 6.55679C9.02458 6.07928 8.67247 5.71792 8.22907 5.47271C7.79871 5.22751 7.32923 5.1049 6.82063 5.1049C6.32507 5.1049 5.85559 5.23396 5.41219 5.49207C4.98183 5.73728 4.62973 6.09864 4.35587 6.57615C4.09504 7.05366 3.96463 7.61505 3.96463 8.26034C3.96463 8.90562 4.09504 9.46702 4.35587 9.94452C4.62973 10.422 4.98183 10.7898 5.41219 11.048C5.85559 11.2932 6.32507 11.4158 6.82063 11.4158C7.32923 11.4158 7.79871 11.2867 8.22907 11.0286C8.67247 10.7705 9.02458 10.4027 9.2854 9.92517C9.55926 9.44766 9.69619 8.87981 9.69619 8.22162Z" fill="#000047"/>
<path d="M23.971 8.02803C23.971 8.4152 23.9449 8.76366 23.8928 9.07339H15.9703C16.0355 9.84773 16.3094 10.4543 16.7919 10.8931C17.2744 11.3319 17.8678 11.5513 18.572 11.5513C19.5892 11.5513 20.313 11.1189 20.7434 10.2543H23.6972C23.3842 11.2867 22.7843 12.1385 21.8975 12.8096C21.0107 13.4678 19.9218 13.7969 18.6307 13.7969C17.5874 13.7969 16.6484 13.571 15.8138 13.1193C14.9922 12.6547 14.3467 12.003 13.8772 11.1641C13.4208 10.3252 13.1926 9.35732 13.1926 8.26034C13.1926 7.15045 13.4208 6.17607 13.8772 5.3372C14.3336 4.49834 14.9727 3.85305 15.7943 3.40135C16.6158 2.94965 17.5613 2.7238 18.6307 2.7238C19.6609 2.7238 20.5803 2.9432 21.3889 3.38199C22.2105 3.82079 22.843 4.44671 23.2864 5.25977C23.7428 6.05992 23.971 6.98268 23.971 8.02803ZM21.1346 7.25369C21.1215 6.55679 20.8672 6.00185 20.3717 5.58886C19.8761 5.16298 19.2697 4.95003 18.5524 4.95003C17.8743 4.95003 17.3005 5.15653 16.831 5.56951C16.3746 5.96958 16.0942 6.53098 15.9899 7.25369H21.1346Z" fill="#000047"/>
<path d="M28.1218 4.44671C28.4739 3.9563 28.9564 3.54976 29.5693 3.22712C30.1953 2.89157 30.906 2.7238 31.7015 2.7238C32.6275 2.7238 33.4621 2.94965 34.2054 3.40135C34.9618 3.85305 35.5552 4.49834 35.9855 5.3372C36.4289 6.16317 36.6506 7.12464 36.6506 8.22162C36.6506 9.3186 36.4289 10.293 35.9855 11.1448C35.5552 11.9836 34.9618 12.6354 34.2054 13.1C33.4621 13.5646 32.6275 13.7969 31.7015 13.7969C30.906 13.7969 30.2018 13.6355 29.5889 13.3129C28.989 12.9903 28.4999 12.5837 28.1218 12.0933V18.7333H25.3831V2.89803H28.1218V4.44671ZM33.8533 8.22162C33.8533 7.57634 33.7164 7.02139 33.4425 6.55679C33.1817 6.07928 32.8296 5.71792 32.3862 5.47271C31.9558 5.22751 31.4864 5.1049 30.9778 5.1049C30.4822 5.1049 30.0127 5.23396 29.5693 5.49207C29.139 5.73728 28.7869 6.09864 28.513 6.57615C28.2522 7.05366 28.1218 7.61505 28.1218 8.26034C28.1218 8.90562 28.2522 9.46702 28.513 9.94452C28.7869 10.422 29.139 10.7898 29.5693 11.048C30.0127 11.2932 30.4822 11.4158 30.9778 11.4158C31.4864 11.4158 31.9558 11.2867 32.3862 11.0286C32.8296 10.7705 33.1817 10.4027 33.4425 9.92517C33.7164 9.44766 33.8533 8.87981 33.8533 8.22162Z" fill="#000047"/>
<path d="M41.2424 5.12426V10.3123C41.2424 10.6737 41.3272 10.9383 41.4967 11.106C41.6793 11.2609 41.9792 11.3383 42.3966 11.3383H43.6681V13.6226H41.9466C39.6384 13.6226 38.4842 12.5127 38.4842 10.293V5.12426H37.1932V2.89803H38.4842V0.245911H41.2424V2.89803H43.6681V5.12426H41.2424Z" fill="#000047"/>
<path d="M55.1254 8.02803C55.1254 8.4152 55.0993 8.76366 55.0472 9.07339H47.1247C47.1899 9.84773 47.4637 10.4543 47.9463 10.8931C48.4288 11.3319 49.0222 11.5513 49.7264 11.5513C50.7436 11.5513 51.4674 11.1189 51.8977 10.2543H54.8515C54.5385 11.2867 53.9387 12.1385 53.0519 12.8096C52.1651 13.4678 51.0761 13.7969 49.7851 13.7969C48.7418 13.7969 47.8028 13.571 46.9682 13.1193C46.1466 12.6547 45.5011 12.003 45.0316 11.1641C44.5751 10.3252 44.3469 9.35732 44.3469 8.26034C44.3469 7.15045 44.5751 6.17607 45.0316 5.3372C45.488 4.49834 46.127 3.85305 46.9486 3.40135C47.7702 2.94965 48.7157 2.7238 49.7851 2.7238C50.8153 2.7238 51.7347 2.9432 52.5433 3.38199C53.3649 3.82079 53.9973 4.44671 54.4407 5.25977C54.8972 6.05992 55.1254 6.98268 55.1254 8.02803ZM52.289 7.25369C52.2759 6.55679 52.0216 6.00185 51.5261 5.58886C51.0305 5.16298 50.4241 4.95003 49.7068 4.95003C49.0287 4.95003 48.4549 5.15653 47.9854 5.56951C47.529 5.96958 47.2486 6.53098 47.1442 7.25369H52.289Z" fill="#000047"/>
<path d="M55.8332 8.22162C55.8332 7.13754 56.0484 6.17607 56.4788 5.3372C56.9222 4.49834 57.5155 3.85305 58.2589 3.40135C59.0153 2.94965 59.8564 2.7238 60.7823 2.7238C61.5909 2.7238 62.2951 2.88512 62.895 3.20776C63.5079 3.5304 63.997 3.93694 64.3621 4.42736V2.89803H67.1203V13.6226H64.3621V12.0546C64.01 12.5579 63.521 12.9774 62.895 13.3129C62.2821 13.6355 61.5713 13.7969 60.7628 13.7969C59.8499 13.7969 59.0153 13.5646 58.2589 13.1C57.5155 12.6354 56.9222 11.9836 56.4788 11.1448C56.0484 10.293 55.8332 9.3186 55.8332 8.22162ZM64.3621 8.26034C64.3621 7.60215 64.2317 7.04075 63.9709 6.57615C63.7101 6.09864 63.358 5.73728 62.9146 5.49207C62.4712 5.23396 61.9952 5.1049 61.4866 5.1049C60.978 5.1049 60.5085 5.22751 60.0781 5.47271C59.6478 5.71792 59.2957 6.07928 59.0218 6.55679C58.761 7.02139 58.6306 7.57634 58.6306 8.22162C58.6306 8.8669 58.761 9.43475 59.0218 9.92517C59.2957 10.4027 59.6478 10.7705 60.0781 11.0286C60.5215 11.2867 60.991 11.4158 61.4866 11.4158C61.9952 11.4158 62.4712 11.2932 62.9146 11.048C63.358 10.7898 63.7101 10.4285 63.9709 9.96388C64.2317 9.48637 64.3621 8.91852 64.3621 8.26034Z" fill="#000047"/>
<path d="M82.6664 2.74316C83.9966 2.74316 85.066 3.14969 85.8745 3.96276C86.6961 4.76291 87.1069 5.8857 87.1069 7.33113V13.6226H84.3683V7.69894C84.3683 6.86008 84.1531 6.22125 83.7227 5.78245C83.2924 5.33076 82.7055 5.10491 81.9622 5.10491C81.2189 5.10491 80.6255 5.33076 80.1821 5.78245C79.7517 6.22125 79.5365 6.86008 79.5365 7.69894V13.6226H76.7979V7.69894C76.7979 6.86008 76.5827 6.22125 76.1524 5.78245C75.722 5.33076 75.1352 5.10491 74.3918 5.10491C73.6354 5.10491 73.0356 5.33076 72.5922 5.78245C72.1618 6.22125 71.9466 6.86008 71.9466 7.69894V13.6226H69.208V2.89803H71.9466V4.19506C72.2987 3.74336 72.7487 3.38845 73.2964 3.13033C73.8571 2.87222 74.4701 2.74316 75.1352 2.74316C75.9828 2.74316 76.7392 2.92384 77.4043 3.2852C78.0694 3.63366 78.5845 4.13698 78.9497 4.79517C79.3018 4.1757 79.8104 3.67883 80.4755 3.30456C81.1536 2.93029 81.8839 2.74316 82.6664 2.74316Z" fill="#000047"/>
</svg>
